<svg xmlns="http://www.w3.org/2000/svg" viewBox="0 0 69.68 52.39"><g data-name="&lt;Группа&gt;"><path d="M1219.68,975a3.2,3.2,0,1,1,0,6.4,3.18,3.18,0,0,1-.91-.13l-.17,0-5.58,7.68.1.15a3.15,3.15,0,0,1,.56,1.81,3.2,3.2,0,1,1-6.17-1.19l.06-.16-4.57-4-.16.08a3.18,3.18,0,0,1-2.94.1l-.16-.07-4.86,4.85.08.16a3.13,3.13,0,0,1,.31,1.38,3.2,3.2,0,0,1-5.42,2.3l-.13-.12-3.7,1.85,0,.17a2.69,2.69,0,0,1,0,.4,3.21,3.21,0,1,1-1-2.3l.12.12,3.7-1.85,0-.18c0-.13,0-.26,0-.39a3.2,3.2,0,0,1,3.2-3.2,3.13,3.13,0,0,1,1.38.31l.16.07,4.85-4.85-.07-.16a3.11,3.11,0,0,1-.32-1.38,3.21,3.21,0,1,1,6.18,1.19l-.07.16,4.58,4,.15-.08a3.25,3.25,0,0,1,2.48-.28l.17.05,5.59-7.68-.1-.15a3.16,3.16,0,0,1-.57-1.81A3.21,3.21,0,0,1,1219.68,975Zm1.41,3.2a1.4,1.4,0,1,0-1.4,1.4A1.4,1.4,0,0,0,1221.09,978.22Zm-9.2,12.66a1.41,1.41,0,1,0-1.41,1.4A1.4,1.4,0,0,0,1211.89,990.88Zm-9.21-8.06a1.4,1.4,0,1,0-1.4,1.4A1.4,1.4,0,0,0,1202.68,982.82Zm-9.2,9.21a1.41,1.41,0,1,0-1.41,1.4A1.41,1.41,0,0,0,1193.48,992Zm-9.21,4.6a1.4,1.4,0,1,0-1.4,1.4A1.4,1.4,0,0,0,1184.27,996.63Z" transform="translate(-1167.79 -965.65)" style="fill:#009e82"/></g><path d="M1233.88,965.65h-62.49a3.61,3.61,0,0,0-3.6,3.6v39a3.6,3.6,0,0,0,3.6,3.6h19v4.3h-3.61a.95.95,0,0,0,0,1.89h31.59a.95.95,0,0,0,0-1.89h-3.61v-4.3h19.11a3.6,3.6,0,0,0,3.6-3.6v-39A3.61,3.61,0,0,0,1233.88,965.65Zm-21,50.51h-20.59v-4.3h20.59Zm22.71-7.9a1.72,1.72,0,0,1-1.71,1.72h-62.49a1.72,1.72,0,0,1-1.71-1.72v-1.06h65.91Zm0-2.94h-15V986.93a.9.9,0,1,0-1.8,0v18.39h-7.4v-5.74a.9.9,0,1,0-1.8,0v5.74h-7.4V991.53a.91.91,0,0,0-1.81,0v13.79H1193v-4.59a.9.9,0,0,0-1.8,0v4.59h-7.41a.9.9,0,0,0-.26-.62.93.93,0,0,0-1.28,0,.89.89,0,0,0-.25.62h-12.29V969.25a1.72,1.72,0,0,1,1.71-1.71h62.49a1.72,1.72,0,0,1,1.71,1.71Z" transform="translate(-1167.79 -965.65)" style="fill:#1d1d1d"/></svg>