<svg xmlns="http://www.w3.org/2000/svg" viewBox="0 0 21 25.23"><polygon points="8.11 3.86 12.89 4.82 12.89 5.44 13.47 5.44 13.47 4.34 7.53 3.15 7.53 5.44 8.11 5.44 8.11 3.86" style="fill:#1d1d1d"/><path d="M70.16,551.47H74l-.1-.76-1.57-11.56-5.87-1.07v-1.84l.06-.06a4.06,4.06,0,0,0,1-2.48v-.08l1.08-1.07v-3.88a2.44,2.44,0,0,0-2.44-2.43H60.81a2.43,2.43,0,0,0-2.43,2.43v3.88l1.08,1.07v.08a4.22,4.22,0,0,0,1,2.42l.05.06v1.9l-5.86,1.07L53,551.47h3.78v-.58H53.65l.12-.84h0l0-.42,1.37-10,1.06-.19h0l2.67-.5,2.47,3-.16.14h1l1.23-1.65,1.24,1.65h1l-.16-.13,2.47-3,3.74.68,0,.15L73.23,550h0l.12.86H70.18ZM60,533.49v-.12L59,532.3v-3.63a1.85,1.85,0,0,1,1.85-1.85h5.36A1.86,1.86,0,0,1,68,528.67v3.63L67,533.38v.12A3.46,3.46,0,0,1,63.49,537h-.1A3.56,3.56,0,0,1,60,533.49Zm1.84,8.12-2.3-2.77,1.19-.21L63.07,540Zm-.77-3.45v-1.41l.33.2a4,4,0,0,0,1.94.59h.12a4,4,0,0,0,2.07-.57l.32-.19v1.38l-2.39,1.43Zm4,3.45L63.92,540l2.31-1.38,1.19.21Z" transform="translate(-52.99 -526.24)" style="fill:#1d1d1d"/><path d="M62.26,542.06" transform="translate(-52.99 -526.24)" style="fill:#262727"/><path d="M64.73,542.06" transform="translate(-52.99 -526.24)" style="fill:#262727"/><path d="M61.22,542.06" transform="translate(-52.99 -526.24)" style="fill:#262727"/><path d="M65.77,542.06" transform="translate(-52.99 -526.24)" style="fill:#262727"/><rect x="4.06" y="16.13" width="12.89" height="8.74" style="fill:none;stroke:#009e82;stroke-miterlimit:10;stroke-width:0.708661437034607px"/><line x1="8.42" y1="20.5" x2="12.58" y2="20.5" style="fill:none;stroke:#009e82;stroke-miterlimit:10;stroke-width:0.708661437034607px"/></svg>